<svg width="232" height="192" viewBox="0 0 232 192" fill="none" xmlns="http://www.w3.org/2000/svg">
<path d="M25.6208 175C25.4501 174.147 25.3648 173.016 25.3648 171.608C24.5541 173.016 23.3381 174.083 21.7168 174.808C20.1381 175.491 18.4528 175.832 16.6608 175.832C12.9488 175.832 10.0261 174.659 7.89275 172.312C5.75942 169.923 4.69275 166.957 4.69275 163.416V143.512H13.2048V161.688C13.2048 163.565 13.6954 165.101 14.6768 166.296C15.6581 167.448 17.0874 168.024 18.9648 168.024C20.7994 168.024 22.2501 167.469 23.3168 166.36C24.3834 165.208 24.9168 163.693 24.9168 161.816V143.512H33.4288V169.304C33.4288 171.309 33.5354 173.208 33.7488 175H25.6208ZM51.0248 156.888V175H42.5128V143.512H50.7688V147.416C51.6648 145.88 52.9448 144.707 54.6088 143.896C56.2728 143.085 58.0221 142.68 59.8568 142.68C63.5688 142.68 66.3848 143.853 68.3048 146.2C70.2674 148.504 71.2488 151.491 71.2488 155.16V175H62.7368V156.632C62.7368 154.755 62.2461 153.24 61.2648 152.088C60.3261 150.936 58.8754 150.36 56.9128 150.36C55.1208 150.36 53.6914 150.979 52.6248 152.216C51.5581 153.453 51.0248 155.011 51.0248 156.888ZM86.0958 155.672H100.176C100.09 153.923 99.4504 152.451 98.2558 151.256C97.1038 150.061 95.3971 149.464 93.1358 149.464C91.0878 149.464 89.4238 150.104 88.1438 151.384C86.8638 152.664 86.1811 154.093 86.0958 155.672ZM101.008 163.864L108.112 165.976C107.258 168.877 105.573 171.267 103.056 173.144C100.581 175.021 97.4878 175.96 93.7758 175.96C89.2531 175.96 85.4131 174.445 82.2558 171.416C79.0984 168.344 77.5198 164.248 77.5198 159.128C77.5198 154.264 79.0558 150.296 82.1278 147.224C85.1998 144.109 88.8264 142.552 93.0078 142.552C97.8718 142.552 101.669 144.003 104.4 146.904C107.173 149.805 108.56 153.795 108.56 158.872C108.56 159.213 108.538 159.597 108.496 160.024C108.496 160.451 108.496 160.792 108.496 161.048L108.432 161.496H85.9038C85.9891 163.544 86.7998 165.251 88.3358 166.616C89.8718 167.981 91.7064 168.664 93.8398 168.664C97.4664 168.664 99.8558 167.064 101.008 163.864ZM113.343 166.424C113.343 163.736 114.217 161.581 115.967 159.96C117.716 158.339 119.977 157.315 122.751 156.888L130.495 155.736C132.073 155.523 132.863 154.776 132.863 153.496C132.863 152.301 132.393 151.32 131.455 150.552C130.559 149.784 129.257 149.4 127.551 149.4C125.759 149.4 124.329 149.891 123.263 150.872C122.239 151.853 121.663 153.069 121.535 154.52L113.983 152.92C114.281 150.189 115.625 147.779 118.015 145.688C120.404 143.597 123.561 142.552 127.487 142.552C132.18 142.552 135.636 143.683 137.855 145.944C140.073 148.163 141.183 151.021 141.183 154.52V170.008C141.183 171.885 141.311 173.549 141.567 175H133.759C133.545 174.061 133.439 172.803 133.439 171.224C131.433 174.339 128.34 175.896 124.159 175.896C120.916 175.896 118.292 174.957 116.287 173.08C114.324 171.203 113.343 168.984 113.343 166.424ZM125.951 169.56C127.956 169.56 129.599 169.005 130.879 167.896C132.201 166.744 132.863 164.867 132.863 162.264V160.856L125.759 161.944C123.156 162.328 121.855 163.651 121.855 165.912C121.855 166.936 122.217 167.811 122.943 168.536C123.668 169.219 124.671 169.56 125.951 169.56ZM168.963 143.384V151.96C168.109 151.789 167.256 151.704 166.403 151.704C163.971 151.704 162.008 152.408 160.515 153.816C159.021 155.181 158.275 157.443 158.275 160.6V175H149.763V143.512H158.019V148.184C159.555 144.899 162.541 143.256 166.979 143.256C167.448 143.256 168.109 143.299 168.963 143.384ZM186.696 134.104V143.512H193.032V151.064H186.696V164.248C186.696 165.571 186.995 166.509 187.592 167.064C188.19 167.619 189.128 167.896 190.408 167.896C191.56 167.896 192.435 167.811 193.032 167.64V174.68C191.795 175.192 190.195 175.448 188.232 175.448C185.16 175.448 182.728 174.595 180.936 172.888C179.144 171.139 178.248 168.749 178.248 165.72V151.064H172.552V143.512H174.152C175.731 143.512 176.926 143.064 177.736 142.168C178.59 141.229 179.016 140.013 179.016 138.52V134.104H186.696ZM207.212 156.504V175H198.7V128.664H207.212V146.136C209.132 143.832 211.97 142.68 215.724 142.68C219.564 142.68 222.466 143.853 224.428 146.2C226.434 148.504 227.436 151.491 227.436 155.16V175H218.924V156.632C218.924 154.755 218.434 153.24 217.452 152.088C216.514 150.936 215.063 150.36 213.1 150.36C211.351 150.36 209.943 150.936 208.876 152.088C207.852 153.24 207.298 154.712 207.212 156.504Z" fill="#22292F"/>
<path d="M161.506 76.6904C159.942 44.404 144.574 27.1048 127.506 22.4536C144.234 29.9336 154.379 54.4 156.664 82.2256C154.624 84.2384 151.618 85.9384 151.618 85.9384C150.476 60.316 141.962 37.0328 128.172 27.7848C122.188 23.7728 116.068 21.08 108.52 20.0328C106.208 20.196 101.638 21.2704 99.4351 21.692C101.339 22.1544 103.23 22.7664 105.052 23.5144C126.962 32.5856 131.042 85.3944 131.667 96.5736C128.947 97.4032 125.534 98.124 125.534 98.124C124.228 68.884 116.53 34.9792 102.686 29.24C97.0823 26.9144 91.0439 26.3296 85.4951 26.8328C72.1535 34.5984 62.8511 50.1976 61.4367 76.4456C59.7503 77.5744 58.5399 78.4312 58.1999 78.7848C52.6375 84.5104 52.2975 87.1896 69.4879 95.6352C86.6783 104.094 100.659 108.746 109.431 112.322C118.19 115.899 130.878 118.701 158.418 111.452C189.1 105.346 176.289 91.6368 161.506 76.6904Z" fill="#24A0ED"/>
</svg>
