<svg width="300" height="300" viewBox="0 0 300 300" fill="none" xmlns="http://www.w3.org/2000/svg">
<path d="M250.38 169.17C246.93 97.9499 213.03 59.7899 175.38 49.5299C212.28 66.0299 234.66 120 239.7 181.38C235.2 185.82 228.57 189.57 228.57 189.57C226.05 133.05 207.27 81.6899 176.85 61.2899C163.65 52.4399 150.15 46.4999 133.5 44.1899C128.4 44.5499 118.32 46.9199 113.46 47.8499C117.66 48.8699 121.83 50.2199 125.85 51.8699C174.18 71.8799 183.18 188.37 184.56 213.03C178.56 214.86 171.03 216.45 171.03 216.45C168.15 151.95 151.17 77.1599 120.63 64.4999C108.27 59.3699 94.95 58.0799 82.71 59.1899C53.28 76.3199 32.76 110.73 29.64 168.63C25.92 171.12 23.2501 173.01 22.5001 173.79C10.2301 186.42 9.48005 192.33 47.4 210.96C85.32 229.62 116.16 239.88 135.51 247.77C154.83 255.66 182.82 261.84 243.57 245.85C311.25 232.38 282.99 202.14 250.38 169.17Z" fill="#007BFF"/>
</svg>
