<svg width="319" height="82" viewBox="0 0 319 82" fill="none" xmlns="http://www.w3.org/2000/svg">
<path d="M112.621 65C112.45 64.1467 112.365 63.016 112.365 61.608C111.554 63.016 110.338 64.0827 108.717 64.808C107.138 65.4907 105.453 65.832 103.661 65.832C99.9488 65.832 97.0261 64.6587 94.8928 62.312C92.7594 59.9227 91.6927 56.9573 91.6927 53.416V33.512H100.205V51.688C100.205 53.5653 100.695 55.1013 101.677 56.296C102.658 57.448 104.087 58.024 105.965 58.024C107.799 58.024 109.25 57.4693 110.317 56.36C111.383 55.208 111.917 53.6933 111.917 51.816V33.512H120.429V59.304C120.429 61.3093 120.535 63.208 120.749 65H112.621ZM138.025 46.888V65H129.513V33.512H137.769V37.416C138.665 35.88 139.945 34.7067 141.609 33.896C143.273 33.0853 145.022 32.68 146.857 32.68C150.569 32.68 153.385 33.8533 155.305 36.2C157.267 38.504 158.249 41.4907 158.249 45.16V65H149.737V46.632C149.737 44.7547 149.246 43.24 148.265 42.088C147.326 40.936 145.875 40.36 143.913 40.36C142.121 40.36 140.691 40.9787 139.625 42.216C138.558 43.4533 138.025 45.0107 138.025 46.888ZM173.096 45.672H187.176C187.09 43.9227 186.45 42.4507 185.256 41.256C184.104 40.0613 182.397 39.464 180.136 39.464C178.088 39.464 176.424 40.104 175.144 41.384C173.864 42.664 173.181 44.0933 173.096 45.672ZM188.008 53.864L195.112 55.976C194.258 58.8773 192.573 61.2667 190.056 63.144C187.581 65.0213 184.488 65.96 180.776 65.96C176.253 65.96 172.413 64.4453 169.256 61.416C166.098 58.344 164.52 54.248 164.52 49.128C164.52 44.264 166.056 40.296 169.128 37.224C172.2 34.1093 175.826 32.552 180.008 32.552C184.872 32.552 188.669 34.0027 191.4 36.904C194.173 39.8053 195.56 43.7947 195.56 48.872C195.56 49.2133 195.538 49.5973 195.496 50.024C195.496 50.4507 195.496 50.792 195.496 51.048L195.432 51.496H172.904C172.989 53.544 173.8 55.2507 175.336 56.616C176.872 57.9813 178.706 58.664 180.84 58.664C184.466 58.664 186.856 57.064 188.008 53.864ZM200.343 56.424C200.343 53.736 201.217 51.5813 202.967 49.96C204.716 48.3387 206.977 47.3147 209.751 46.888L217.495 45.736C219.073 45.5227 219.863 44.776 219.863 43.496C219.863 42.3013 219.393 41.32 218.455 40.552C217.559 39.784 216.257 39.4 214.551 39.4C212.759 39.4 211.329 39.8907 210.263 40.872C209.239 41.8533 208.663 43.0693 208.535 44.52L200.983 42.92C201.281 40.1893 202.625 37.7787 205.015 35.688C207.404 33.5973 210.561 32.552 214.487 32.552C219.18 32.552 222.636 33.6827 224.855 35.944C227.073 38.1627 228.183 41.0213 228.183 44.52V60.008C228.183 61.8853 228.311 63.5493 228.567 65H220.759C220.545 64.0613 220.439 62.8027 220.439 61.224C218.433 64.3387 215.34 65.896 211.159 65.896C207.916 65.896 205.292 64.9573 203.287 63.08C201.324 61.2027 200.343 58.984 200.343 56.424ZM212.951 59.56C214.956 59.56 216.599 59.0053 217.879 57.896C219.201 56.744 219.863 54.8667 219.863 52.264V50.856L212.759 51.944C210.156 52.328 208.855 53.6507 208.855 55.912C208.855 56.936 209.217 57.8107 209.943 58.536C210.668 59.2187 211.671 59.56 212.951 59.56ZM255.963 33.384V41.96C255.109 41.7893 254.256 41.704 253.403 41.704C250.971 41.704 249.008 42.408 247.515 43.816C246.021 45.1813 245.275 47.4427 245.275 50.6V65H236.763V33.512H245.019V38.184C246.555 34.8987 249.541 33.256 253.979 33.256C254.448 33.256 255.109 33.2987 255.963 33.384ZM273.696 24.104V33.512H280.032V41.064H273.696V54.248C273.696 55.5707 273.995 56.5093 274.592 57.064C275.19 57.6187 276.128 57.896 277.408 57.896C278.56 57.896 279.435 57.8107 280.032 57.64V64.68C278.795 65.192 277.195 65.448 275.232 65.448C272.16 65.448 269.728 64.5947 267.936 62.888C266.144 61.1387 265.248 58.7493 265.248 55.72V41.064H259.552V33.512H261.152C262.731 33.512 263.926 33.064 264.736 32.168C265.59 31.2293 266.016 30.0133 266.016 28.52V24.104H273.696ZM294.212 46.504V65H285.7V18.664H294.212V36.136C296.132 33.832 298.97 32.68 302.724 32.68C306.564 32.68 309.466 33.8533 311.428 36.2C313.434 38.504 314.436 41.4907 314.436 45.16V65H305.924V46.632C305.924 44.7547 305.434 43.24 304.452 42.088C303.514 40.936 302.063 40.36 300.1 40.36C298.351 40.36 296.943 40.936 295.876 42.088C294.852 43.24 294.298 44.712 294.212 46.504Z" fill="#22292F"/>
<path d="M68.4371 46.2398C67.4941 26.773 58.2281 16.3426 47.9371 13.5382C58.0231 18.0482 64.1403 32.8 65.5179 49.5772C64.2879 50.7908 62.4757 51.8158 62.4757 51.8158C61.7869 36.367 56.6537 22.3286 48.3389 16.7526C44.7309 14.3336 41.0409 12.71 36.4899 12.0786C35.0959 12.177 32.3407 12.8248 31.0123 13.079C32.1603 13.3578 33.3001 13.7268 34.3989 14.1778C47.6091 19.6472 50.0691 51.4878 50.4463 58.2282C48.8063 58.7284 46.7481 59.163 46.7481 59.163C45.9609 41.533 41.3197 21.0904 32.9721 17.63C29.5937 16.2278 25.9529 15.8752 22.6073 16.1786C14.5631 20.8608 8.95433 30.2662 8.10153 46.0922C7.08473 46.7728 6.35493 47.2894 6.14993 47.5026C2.79613 50.9548 2.59113 52.5702 12.9559 57.6624C23.3207 62.7628 31.7503 65.5672 37.0393 67.7238C42.3201 69.8804 49.9707 71.5696 66.5757 67.199C85.0749 63.5172 77.3505 55.2516 68.4371 46.2398Z" fill="#24A0ED"/>
</svg>
